<?xml version="1.0" ?><!DOCTYPE svg  PUBLIC '-//W3C//DTD SVG 1.1//EN'  'http://www.w3.org/Graphics/SVG/1.1/DTD/svg11.dtd'><svg enable-background="new 0 0 256 256" height="256px" id="Layer_1" version="1.1" viewBox="0 0 256 256" width="256px" xml:space="preserve" xmlns="http://www.w3.org/2000/svg" xmlns:xlink="http://www.w3.org/1999/xlink"><g><g><path d="M246,30H10c-3.314,0-6,2.687-6,6v148c0,3.314,2.686,6,6,6h236c3.314,0,6-2.686,6-6V36     C252,32.687,249.314,30,246,30z M240,178H16V42h224V178z" fill="#B27800"/><path d="M246,202H10c-3.314,0-6,2.686-6,6s0,8.686,0,12s2.686,6,6,6h236c3.314,0,6-2.686,6-6s0-8.686,0-12     S249.314,202,246,202z M136,218c-1.686,0-14.315,0-16,0c-2.209,0-4-1.791-4-4s1.791-4,4-4c1.685,0,14.314,0,16,0     c2.209,0,4,1.791,4,4S138.209,218,136,218z" fill="#B27800"/><g><g><circle cx="72.065" cy="116.996" fill="#B27800" r="10.5"/><path d="M72.065,139.074c13.113,0,19.389-9.791,25.171-20.7c0.457-0.862,0.457-1.896,0-2.757       c-5.782-10.909-12.058-20.701-25.171-20.701s-19.389,9.792-25.171,20.701c-0.457,0.861-0.457,1.895,0,2.757       C52.676,129.283,58.952,139.074,72.065,139.074z M72.065,100.804c6.691,0,11.805,2.623,19.228,16.194       c-5.715,10.512-10.639,16.188-19.228,16.188c-6.691,0-11.805-2.623-19.228-16.193       C58.552,106.481,63.477,100.804,72.065,100.804z" fill="#B27800"/></g><g><path d="M147.604,123.374L147.604,123.374c1.49,2.926,5.508,5.888,10.304,5.888       c4.271,0,7.367-0.615,8.832-0.981l0.004,0.005c0.133,0.178,0.302,0.42,0.472,0.664c0.092,0.133,0.18,0.259,0.251,0.358       c1.485,2.069,3.781,5.269,7.093,6.405c-0.822,1.615-1.178,2.81-1.324,3.46c-0.088,0.278-0.135,0.575-0.135,0.883       c0,1.626,1.322,2.944,2.953,2.944c1.507,0,2.747-1.126,2.928-2.579h0.002l-0.011,0.074c0.006-0.032,0.626-3.252,5.383-8.243       c1.009-1.068,1.945-2.242,2.84-3.369c1.417-1.783,2.883-3.628,4.238-4.531c0.056-0.037,0.109-0.076,0.162-0.116       c3.745-2.881,5.565-6.372,5.565-10.675c0-7.262-2.791-13.263-8.071-17.354c-4.82-3.733-11.53-5.707-19.405-5.707       c-19.37,0-31.402,7.708-31.402,20.117C138.282,119.864,143.352,122.658,147.604,123.374z M169.684,96.388       c6.558,0,12.021,1.548,15.799,4.474c3.788,2.935,5.789,7.326,5.789,12.699c0,2.425-0.957,4.209-3.198,5.954       c-2.082,1.418-3.814,3.597-5.493,5.71c-0.744,0.937-1.565,1.968-2.381,2.852c-0.002,0.002-0.005,0.004-0.007,0.006       c-0.068,0.071-0.128,0.14-0.195,0.211c-1.063,1.117-2.107,1.95-2.955,1.95c-1.658,0-3.62-2.734-4.796-4.374       c-0.058-0.079-0.125-0.177-0.215-0.306c-0.202-0.29-0.42-0.601-0.588-0.823l-1.173-1.559c-0.565-0.749-1.441-1.173-2.352-1.173       c-0.237,0-0.477,0.028-0.713,0.087l-1.894,0.474c-1.203,0.301-3.764,0.806-7.403,0.806c-2.412,0-4.486-1.552-5.056-2.671       l-0.673-1.322c-0.423-0.831-1.216-1.413-2.136-1.567l-1.462-0.246c-2.291-0.386-4.411-1.494-4.411-6.95       C144.17,101.84,153.946,96.388,169.684,96.388z" fill="#B27800"/><path d="M151.807,115.508c0.072,0.008,0.145,0.012,0.215,0.012c0.985,0,1.835-0.744,1.949-1.746       c0.099-0.867,0.679-3.291,2.16-4.072c1.239-0.653,3.019,0.013,4.293,0.688c0.59,0.313,1.299,0.304,1.881-0.024       c0.581-0.328,0.957-0.929,0.997-1.596c0.191-3.253,1.813-3.671,2.346-3.808c1.838-0.473,3.868,0.548,4.191,1.021       c0.307,0.726,1.018,1.199,1.808,1.199c0.007,0,0.015,0,0.022,0c0.81-0.01,1.532-0.515,1.816-1.274       c0.27-0.719,0.615-0.937,0.852-1.038c0.807-0.345,2.044,0.028,2.401,0.181c0.99,0.439,2.15-0.006,2.591-0.996       c0.44-0.991-0.006-2.15-0.996-2.591c-0.3-0.133-2.996-1.269-5.504-0.218c-0.555,0.233-1.056,0.555-1.494,0.957       c-1.654-1.002-3.934-1.517-5.997-1.182c-1.391,0.226-4.341,1.145-5.498,4.879c-2.083-0.632-3.947-0.519-5.562,0.342       c-3.562,1.897-4.153,6.585-4.208,7.113C149.955,114.43,150.733,115.391,151.807,115.508z" fill="#B27800"/><path d="M175.278,109.889c-2.961,1.17-4.979,4.197-4.593,6.894c0.14,0.978,0.98,1.686,1.94,1.686       c0.093,0,0.186-0.007,0.28-0.02c1.073-0.153,1.819-1.148,1.666-2.22c-0.115-0.806,0.799-2.155,2.15-2.688       c1.209-0.477,2.264-0.092,3.131,1.147c0.622,0.888,1.846,1.104,2.734,0.482c0.888-0.622,1.104-1.846,0.483-2.733       C181.165,109.717,178.18,108.742,175.278,109.889z" fill="#B27800"/></g><path d="M23.953,118.678l19.626,11.776c0.316,0.189,0.664,0.28,1.008,0.28c0.667,0,1.316-0.341,1.685-0.954      c0.558-0.929,0.256-2.134-0.673-2.692l-16.821-10.093l16.821-10.093c0.929-0.558,1.23-1.764,0.673-2.692      c-0.558-0.929-1.764-1.231-2.692-0.673l-19.626,11.775c-0.591,0.354-0.953,0.993-0.953,1.683      C23,117.685,23.362,118.323,23.953,118.678z" fill="#B27800"/><path d="M209.728,129.78c0.368,0.613,1.018,0.954,1.685,0.954c0.344,0,0.692-0.091,1.008-0.28l19.626-11.776      c0.591-0.354,0.953-0.993,0.953-1.683c0-0.689-0.362-1.328-0.953-1.683l-19.626-11.775c-0.929-0.559-2.135-0.256-2.692,0.673      c-0.558,0.929-0.256,2.135,0.673,2.692l16.821,10.093l-16.821,10.093C209.472,127.646,209.171,128.852,209.728,129.78z" fill="#B27800"/><path d="M198.269,138.546c0.13,0.026,0.259,0.039,0.387,0.039c0.917,0,1.736-0.646,1.922-1.579l7.851-39.252      c0.212-1.062-0.477-2.097-1.54-2.309c-1.061-0.217-2.097,0.477-2.309,1.539l-7.851,39.252      C196.517,137.3,197.206,138.334,198.269,138.546z" fill="#B27800"/><g><path d="M116.224,141.037c6.529,0,12.178-3.778,14.916-9.256l-4.197-6.2c-0.611,5.376-5.183,9.568-10.72,9.568       c-5.952,0-10.794-4.843-10.794-10.794c0-2.675,0.983-5.12,2.6-7.008c-0.006-0.098-0.029-0.191-0.029-0.291v-7.197       c-5.043,2.872-8.458,8.288-8.458,14.496C99.542,133.554,107.025,141.037,116.224,141.037z" fill="#B27800"/><path d="M113,97c1.105-0.002,2.03-0.873,2.692-2.021c0.68-1.18,1.453-3.084,1.175-4.357       c-0.389-1.781-2.128-3.431-3.867-3.435c-1.739,0.004-3.479,1.653-3.867,3.435c-0.278,1.273,0.495,3.178,1.175,4.357       C110.97,96.127,111.894,96.998,113,97z" fill="#B27800"/><path d="M116,100.943c0-1.625-1.43-2.943-3.056-2.943c-1.625,0-2.944,1.318-2.944,2.943v16.113       c0,1.625,1.318,2.943,2.944,2.943h12.638l8.451,12.487c0.564,0.861,1.505,1.331,2.465,1.331c0.068,0,0.173-0.053,0.303-0.145       c0.012,0,0.022,0.004,0.034,0.004c0.559,0,1.105-0.159,1.579-0.461l5.396-3.435c0.914-0.582,1.184-1.795,0.602-2.71       c-0.582-0.914-1.795-1.183-2.709-0.602l-3.245,2.064l-8.822-13.205c-0.544-0.83-1.47-1.33-2.462-1.33H116v-7h10.037       c1.084,0,1.963-0.879,1.963-1.963s-0.879-1.963-1.963-1.963H116V100.943z" fill="#B27800"/></g></g></g></g></svg>