<svg width="479" height="592" viewBox="0 0 479 592" fill="none" xmlns="http://www.w3.org/2000/svg">
<path opacity="0.07" d="M478.934 297.756C470.599 292.887 464.56 292.755 460.819 297.361C457.078 301.901 455.24 309.599 455.24 320.456V378.949C455.24 390.069 454.19 399.281 452.156 406.584C450.121 414.151 446.642 419.546 441.851 422.704C437.191 425.928 430.89 426.784 422.883 425.27C415.072 423.823 405.293 419.743 393.61 412.966L388.031 409.742V363.684L394.988 367.698C403.324 372.567 408.902 373.159 411.725 369.606C414.678 366.185 416.188 359.013 416.188 348.156V296.637C416.188 283.215 417.501 272.621 420.126 264.792C422.751 256.962 427.936 252.027 435.747 249.79C427.936 238.539 422.751 227.55 420.126 216.76C417.501 205.969 416.254 193.862 416.254 180.44V128.921C416.254 118.064 414.744 109.247 411.79 102.339C409.034 95.5617 403.455 89.7715 395.054 84.9026L388.096 80.8889V34.831L393.675 38.0551C405.358 44.8322 415.138 52.0041 422.948 59.6365C430.956 67.3348 437.257 75.5594 441.917 84.1788C446.774 92.9298 450.187 102.273 452.221 112.208C454.256 121.88 455.306 132.342 455.306 143.396V201.89C455.306 212.746 457.144 222.616 460.885 231.432C464.626 240.315 470.664 247.158 479 251.961L478.934 297.756Z" fill="url(#paint0_linear)"/>
<path opacity="0.07" d="M267.263 128.329C275.599 133.198 281.637 133.329 285.378 128.723C289.12 124.183 290.957 116.485 290.957 105.629V47.1351C290.957 36.0154 292.008 26.8038 294.042 19.5004C296.077 11.9337 299.424 6.47254 304.084 3.24849C308.941 0.0902357 315.242 -0.765125 323.053 0.682409C331.06 2.19574 340.905 6.34095 352.588 13.118L358.167 16.3421V62.4L351.21 58.3864C342.874 53.5174 337.164 52.8594 334.21 56.2809C331.454 59.8339 330.01 67.0058 330.01 77.8623V129.381C330.01 142.804 328.697 153.397 326.072 161.227C323.446 168.991 318.261 173.992 310.451 176.229C318.261 187.48 323.446 198.468 326.072 209.259C328.697 220.05 329.944 232.156 329.944 245.579V297.098C329.944 307.954 331.323 316.771 334.145 323.548C337.098 330.457 342.809 336.313 351.144 341.116L358.101 345.13V391.188L352.522 387.964C340.84 381.186 330.994 373.949 322.987 366.251C315.176 358.618 308.876 350.459 304.019 341.708C299.359 333.089 296.011 323.811 293.977 313.81C291.942 304.138 290.892 293.676 290.892 282.623V224.129C290.892 213.273 289.054 203.403 285.313 194.586C281.572 185.704 275.533 178.861 267.198 174.057L267.263 128.329Z" fill="url(#paint1_linear)"/>
<path opacity="0.4" d="M452.681 317.495C444.345 312.626 438.307 312.494 434.566 317.1C430.824 321.64 428.987 329.338 428.987 340.195V398.688C428.987 409.808 427.937 419.02 425.902 426.323C423.867 433.89 420.389 439.285 415.597 442.443C410.937 445.667 404.636 446.523 396.629 445.009C388.818 443.562 379.039 439.483 367.356 432.705L361.777 429.481V383.424L368.734 387.437C377.07 392.306 382.649 392.898 385.471 389.345C388.425 385.924 389.934 378.752 389.934 367.895V316.376C389.934 302.954 391.247 292.36 393.872 284.531C396.498 276.701 401.683 271.766 409.493 269.529C401.683 258.278 396.498 247.29 393.872 236.499C391.247 225.708 390 213.601 390 200.179V148.66C390 137.803 388.49 128.987 385.537 122.078C382.78 115.301 377.201 109.511 368.8 104.642L361.843 100.628V54.5701L367.422 57.7942C379.104 64.5713 388.884 71.7432 396.695 79.3756C404.702 87.0739 411.003 95.2985 415.663 103.918C420.52 112.669 423.933 122.012 425.967 131.947C428.002 141.62 429.052 152.081 429.052 163.135V221.629C429.052 232.485 430.89 242.355 434.631 251.172C438.372 260.054 444.411 266.897 452.746 271.7L452.681 317.495Z" fill="url(#paint2_linear)"/>
<path opacity="0.4" d="M241.01 148.068C249.345 152.937 255.384 153.068 259.125 148.462C262.866 143.922 264.704 136.224 264.704 125.368V66.8742C264.704 55.7545 265.754 46.5429 267.788 39.2394C269.823 31.6728 273.17 26.2116 277.831 22.9876C282.687 19.8293 288.988 18.974 296.799 20.4215C304.806 21.9348 314.651 26.08 326.334 32.8571L331.913 36.0812V82.1391L324.956 78.1255C316.62 73.2565 310.91 72.5985 307.957 76.02C305.2 79.573 303.756 86.7449 303.756 97.6014V149.12C303.756 162.543 302.443 173.136 299.818 180.966C297.193 188.73 292.008 193.731 284.197 195.968C292.008 207.219 297.193 218.207 299.818 228.998C302.443 239.789 303.69 251.895 303.69 265.318V316.837C303.69 327.693 305.069 336.51 307.891 343.287C310.845 350.196 316.555 356.052 324.89 360.855L331.848 364.869V410.927L326.269 407.703C314.586 400.925 304.741 393.688 296.733 385.99C288.923 378.357 282.622 370.198 277.765 361.447C273.105 352.828 269.757 343.551 267.723 333.549C265.688 323.877 264.638 313.415 264.638 302.362V243.868C264.638 233.012 262.8 223.142 259.059 214.325C255.318 205.443 249.28 198.6 240.944 193.797L241.01 148.068Z" fill="url(#paint3_linear)"/>
<path opacity="0.15" d="M95.3012 8.05167L207.47 72.9933L207.405 342.3L95.2356 277.359L95.3012 8.05167Z" fill="url(#paint4_linear)"/>
<path d="M74.2326 49.438L163.43 101.089V125.894L74.2326 74.2435V49.438Z" fill="#F2C94C"/>
<path opacity="0.15" d="M109.15 157.082L194.869 206.693V245.25L109.15 195.639V157.082Z" fill="white"/>
<path opacity="0.15" d="M109.085 110.432L194.934 160.109V169.057L109.085 119.446V110.432Z" fill="white"/>
<path opacity="0.15" d="M109.085 127.934L183.317 170.899V179.848L109.085 136.882V127.934Z" fill="white"/>
<path opacity="0.2" d="M95.3013 8.05167L207.47 72.9933V109.116L95.3013 44.1742V8.05167Z" fill="url(#paint5_linear)"/>
<path opacity="0.2" d="M123.327 42.5293C123.327 47.9904 120.111 50.5565 116.173 48.3194C112.235 46.0165 109.085 39.7658 109.085 34.3047C109.085 28.8435 112.301 26.2774 116.239 28.5145C120.111 30.8174 123.327 37.0681 123.327 42.5293Z" fill="white"/>
<path opacity="0.15" d="M233.133 257.751L345.303 322.693L345.237 592L233.068 527.058L233.133 257.751Z" fill="url(#paint6_linear)"/>
<path d="M275.862 336.115L365.059 387.7V412.44L275.796 360.855L275.862 336.115Z" fill="#F2994A"/>
<path opacity="0.15" d="M246.982 361.711L332.767 411.387V449.878L246.982 400.202V361.711Z" fill="white"/>
<path opacity="0.15" d="M246.851 416.717L332.701 466.394V475.342L246.851 425.731V416.717Z" fill="white"/>
<path opacity="0.15" d="M246.851 432.903L321.084 475.868V484.817L246.851 441.851V432.903Z" fill="white"/>
<path opacity="0.2" d="M233.134 257.751L345.303 322.693V358.815L233.134 293.874V257.751Z" fill="url(#paint7_linear)"/>
<path opacity="0.2" d="M261.159 292.295C261.159 297.756 257.943 300.322 254.005 298.085C250.067 295.782 246.917 289.531 246.917 284.07C246.917 278.609 250.133 276.043 254.071 278.28C257.943 280.517 261.159 286.834 261.159 292.295Z" fill="white"/>
<path opacity="0.3" d="M213.706 295.058L18.4433 182.085L18.509 284.136L196.575 387.174L213.837 412.769L213.706 295.058Z" fill="url(#paint8_linear)"/>
<path opacity="0.15" d="M163.496 290.847L120.702 266.107V275.056L163.496 299.796V290.847Z" fill="white"/>
<path opacity="0.15" d="M163.495 308.81L57.5615 247.487V256.435L163.561 317.758L163.495 308.81Z" fill="white"/>
<path opacity="0.15" d="M163.561 326.772L35.6397 252.751V261.699L163.561 335.721V326.772Z" fill="white"/>
<path d="M174.063 306.309C174.063 314.731 179.051 324.404 185.155 327.957C191.259 331.51 196.247 327.562 196.247 319.14C196.247 310.718 191.259 301.046 185.155 297.493C178.985 293.94 174.063 297.887 174.063 306.309Z" fill="#F2994A"/>
<path opacity="0.15" d="M37.7399 110.432L11.8799 95.4301V86.6791L37.7399 101.681C39.8402 102.931 42.925 105.365 45.5503 109.182C48.3726 113.261 50.4073 118.393 50.4073 123.986C50.4073 130.171 48.8321 133.658 45.8785 134.711C43.0562 135.632 39.7745 134.053 37.7399 132.869L27.1071 126.684L27.0414 126.618C26.1226 126.091 24.6786 125.565 23.5628 125.894C22.6439 126.157 21.5282 127.144 21.5282 130.566C21.5282 133.987 22.5783 136.093 23.4972 137.343C24.613 138.922 26.0569 140.04 26.9758 140.501L27.1071 140.567L59.6617 159.385V168.136L27.304 149.384C25.0724 148.199 21.8563 145.765 19.0997 141.883C16.0805 137.606 13.9802 132.211 13.9802 126.157C13.9802 120.17 16.0805 117.077 19.034 116.222C21.7907 115.432 25.0068 116.617 27.2383 117.933L37.8055 124.052C39.3151 124.907 40.4965 125.302 41.2185 125.039C41.8092 124.841 42.8593 123.986 42.8593 119.578C42.8593 116.683 41.9405 114.84 41.0216 113.524C39.9714 112.077 38.5931 110.892 37.7399 110.432Z" fill="white"/>
<path d="M19.5591 96.3512C19.5591 103.852 15.1615 107.339 9.77953 104.247C4.39751 101.154 0 92.535 0 85.0341C0 77.5333 4.39751 74.046 9.77953 77.1385C15.1615 80.2968 19.5591 88.9162 19.5591 96.3512Z" fill="#F2C94C"/>
<path d="M71.4102 168.728C71.4102 176.229 67.0127 179.716 61.6307 176.624C56.2487 173.531 51.8512 164.912 51.8512 157.411C51.8512 149.91 56.2487 146.423 61.6307 149.515C67.0127 152.673 71.4102 161.293 71.4102 168.728Z" fill="#F2C94C"/>
<path opacity="0.2" d="M141.18 397.504C145.118 399.807 148.268 405.268 148.268 409.874V429.942L161.526 437.574C165.465 439.877 168.615 445.338 168.615 449.944C168.615 454.484 165.399 456.327 161.526 454.089L148.268 446.457V466.525C148.268 471.065 145.052 472.907 141.18 470.67C137.242 468.367 134.091 462.906 134.091 458.3V438.232L120.833 430.6C116.895 428.297 113.745 422.836 113.745 418.23C113.745 413.69 116.961 411.848 120.833 414.085L134.091 421.717V401.649C134.091 397.044 137.242 395.201 141.18 397.504Z" fill="url(#paint9_linear)"/>
<path d="M236.449 202.002L257.151 263.222L300.498 311.154L257.483 310.029L237.485 348.129L216.782 286.91L173.435 238.978L216.45 240.102L236.449 202.002Z" fill="#FFC857"/>
<path d="M360.395 429.59L374.197 470.403L403.095 502.357L374.418 501.608L361.086 527.008L347.284 486.195L318.386 454.24L347.063 454.99L360.395 429.59Z" fill="#FFC857"/>
<path d="M392.299 288.589L402.512 318.791L423.896 342.437L402.676 341.883L392.81 360.679L382.597 330.477L361.212 306.831L382.433 307.385L392.299 288.589Z" fill="#FFC857"/>
<defs>
<linearGradient id="paint0_linear" x1="520.227" y1="48.1342" x2="357.751" y2="329.034" gradientUnits="userSpaceOnUse">
<stop stop-color="white"/>
<stop offset="1" stop-color="white" stop-opacity="0"/>
</linearGradient>
<linearGradient id="paint1_linear" x1="442.393" y1="1.89755" x2="279.917" y2="282.797" gradientUnits="userSpaceOnUse">
<stop stop-color="white"/>
<stop offset="1" stop-color="white" stop-opacity="0"/>
</linearGradient>
<linearGradient id="paint2_linear" x1="493.974" y1="67.8733" x2="331.498" y2="348.773" gradientUnits="userSpaceOnUse">
<stop stop-color="white"/>
<stop offset="1" stop-color="white" stop-opacity="0"/>
</linearGradient>
<linearGradient id="paint3_linear" x1="416.139" y1="21.6365" x2="253.663" y2="302.536" gradientUnits="userSpaceOnUse">
<stop stop-color="white"/>
<stop offset="1" stop-color="white" stop-opacity="0"/>
</linearGradient>
<linearGradient id="paint4_linear" x1="209.506" y1="74.1469" x2="101.947" y2="260.032" gradientUnits="userSpaceOnUse">
<stop stop-color="white"/>
<stop offset="1" stop-color="white" stop-opacity="0"/>
</linearGradient>
<linearGradient id="paint5_linear" x1="133.787" y1="8.60153" x2="168.076" y2="105.584" gradientUnits="userSpaceOnUse">
<stop stop-color="white"/>
<stop offset="1" stop-color="white" stop-opacity="0"/>
</linearGradient>
<linearGradient id="paint6_linear" x1="347.333" y1="323.863" x2="239.775" y2="509.748" gradientUnits="userSpaceOnUse">
<stop stop-color="white"/>
<stop offset="1" stop-color="white" stop-opacity="0"/>
</linearGradient>
<linearGradient id="paint7_linear" x1="271.614" y1="258.318" x2="305.903" y2="355.3" gradientUnits="userSpaceOnUse">
<stop stop-color="white"/>
<stop offset="1" stop-color="white" stop-opacity="0"/>
</linearGradient>
<linearGradient id="paint8_linear" x1="171.13" y1="254.219" x2="70.0926" y2="333.133" gradientUnits="userSpaceOnUse">
<stop stop-color="white"/>
<stop offset="1" stop-color="white" stop-opacity="0"/>
</linearGradient>
<linearGradient id="paint9_linear" x1="154.871" y1="423.14" x2="120.431" y2="450.235" gradientUnits="userSpaceOnUse">
<stop stop-color="white"/>
<stop offset="1" stop-color="white" stop-opacity="0"/>
</linearGradient>
</defs>
</svg>
