

<svg width="1440" height="1378" viewBox="0 0 1440 1378" fill="none" xmlns="http://www.w3.org/2000/svg">
<mask id="mask0" mask-type="alpha" maskUnits="userSpaceOnUse" x="0" y="0" width="1439" height="1532">
<rect width="1439" height="1532" fill="url(#paint0_linear)"/>
</mask>
<g mask="url(#mask0)">
<rect y="154" width="407" height="870" fill="url(#paint1_linear)" fill-opacity="0.4"/>
<rect width="275" height="870" transform="matrix(-1 0 0 1 682 154)" fill="url(#paint2_linear)" fill-opacity="0.4"/>
<rect x="682" y="154" width="364" height="870" fill="url(#paint3_linear)" fill-opacity="0.4"/>
<rect width="394" height="870" transform="matrix(-1 0 0 1 1440 154)" fill="url(#paint4_linear)" fill-opacity="0.4"/>
<path d="M248.969 847.879L171.61 913.805C171.254 914.109 171.156 914.62 171.375 915.034L228.615 1023.27C228.838 1023.69 229.331 1023.9 229.789 1023.76L313.929 998.263C314.5 998.09 314.793 997.459 314.557 996.911L250.536 848.244C250.27 847.626 249.481 847.442 248.969 847.879Z" fill="#D897A9"/>
<path d="M525.419 911.941L422.678 1002.47C422.344 1002.76 422.177 1002.91 422.089 1003.11C422 1003.3 422 1003.52 422 1003.97V1082.97C422 1083.92 422 1084.4 422.299 1084.7C422.598 1084.99 423.077 1084.98 424.034 1084.96H424.034L1362.92 1068.77C1363.17 1068.77 1363.29 1068.76 1363.41 1068.73C1363.53 1068.7 1363.63 1068.64 1363.85 1068.52L1438.96 1027.26C1439.47 1026.98 1439.72 1026.84 1439.86 1026.6C1440 1026.37 1440 1026.08 1440 1025.5V769.881C1440 765.357 1440 763.095 1439.17 762.955C1438.33 762.814 1437.59 764.952 1436.11 769.227L1398.6 877.501L1398.6 877.501C1398.23 878.563 1398.04 879.094 1397.6 879.258C1397.16 879.422 1396.67 879.14 1395.7 878.576L1367.67 862.302C1366.89 861.847 1366.5 861.62 1366.11 861.714C1365.72 861.808 1365.48 862.189 1364.99 862.951L1277.99 998.542C1277.73 998.951 1277.59 999.155 1277.39 999.276C1277.19 999.396 1276.95 999.416 1276.47 999.455L1034.27 1019.25C1033.95 1019.28 1033.8 1019.29 1033.64 1019.26C1033.49 1019.22 1033.36 1019.14 1033.09 1018.98L889.309 933.553C888.807 933.255 888.557 933.106 888.28 933.107C888.003 933.108 887.754 933.259 887.254 933.56L773.317 1002.33C772.729 1002.69 772.435 1002.86 772.117 1002.84C771.799 1002.82 771.535 1002.6 771.007 1002.16L708.575 950.379C708.3 950.151 708.163 950.037 707.998 949.978C707.834 949.919 707.655 949.919 707.298 949.919H679.714C679.286 949.919 679.071 949.919 678.88 949.836C678.69 949.753 678.544 949.596 678.251 949.283L605.397 871.149C604.665 870.363 604.299 869.971 603.842 869.987C603.386 870.004 603.049 870.423 602.376 871.259L554.055 931.34L554.055 931.34C553.449 932.093 553.146 932.47 552.726 932.509C552.305 932.549 551.937 932.236 551.201 931.61L528.036 911.918C527.407 911.383 527.093 911.116 526.72 911.119C526.348 911.123 526.038 911.396 525.419 911.941Z" fill="url(#paint5_linear)"/>
<path d="M103.351 820.54L24.7853 943.85C24.4066 944.444 24.2172 944.741 24.238 945.067C24.2588 945.393 24.4844 945.663 24.9356 946.205H24.9356L190.115 1144.4L190.115 1144.4C190.514 1144.88 190.713 1145.12 190.992 1145.2C191.272 1145.29 191.573 1145.21 192.174 1145.05L317.486 1111.12C317.929 1111 318.151 1110.94 318.369 1110.98C318.588 1111.02 318.776 1111.15 319.152 1111.41L529.259 1257.92C529.991 1258.43 530.358 1258.69 530.75 1258.63C531.143 1258.57 531.42 1258.22 531.973 1257.52L576.485 1201.11L576.485 1201.1C576.875 1200.61 577.069 1200.36 577.349 1200.27C577.629 1200.17 577.934 1200.25 578.544 1200.4L670.362 1223.55C670.556 1223.6 670.653 1223.63 670.752 1223.63C670.852 1223.64 670.951 1223.62 671.149 1223.59L955.284 1180.78C955.463 1180.76 955.552 1180.74 955.641 1180.75C955.731 1180.75 955.819 1180.77 955.996 1180.81L1098.28 1210.86C1098.68 1210.94 1098.88 1210.98 1099.07 1210.95C1099.27 1210.91 1099.44 1210.8 1099.78 1210.58L1323.52 1064.71C1324.22 1064.25 1324.58 1064.02 1324.68 1063.66C1324.78 1063.29 1324.59 1062.92 1324.22 1062.16L1234.23 878.684C1233.49 877.169 1233.12 876.411 1232.51 876.397C1231.9 876.383 1231.49 877.123 1230.68 878.602L1171.06 987.097C1170.81 987.542 1170.69 987.764 1170.49 987.899C1170.29 988.035 1170.04 988.064 1169.53 988.121L883.789 1020.7C883.242 1020.76 882.969 1020.79 882.727 1020.69C882.486 1020.59 882.318 1020.37 881.981 1019.94L841.633 967.796C840.759 966.666 840.322 966.101 839.772 966.155C839.222 966.209 838.902 966.848 838.263 968.125L795.004 1054.58C794.623 1055.34 794.433 1055.72 794.078 1055.86C793.724 1056 793.325 1055.85 792.526 1055.56L632.263 996.785C631.775 996.606 631.531 996.517 631.285 996.551C631.038 996.584 630.827 996.736 630.406 997.04L549.295 1055.46L549.294 1055.46C548.81 1055.81 548.567 1055.98 548.286 1056C548.004 1056.02 547.739 1055.88 547.208 1055.61L373.005 965.61C372.689 965.447 372.531 965.365 372.358 965.343C372.185 965.32 372.011 965.357 371.664 965.432L229.728 996.137C229.095 996.274 228.778 996.343 228.496 996.231C228.214 996.12 228.029 995.853 227.661 995.32L106.682 820.476C105.908 819.357 105.52 818.797 104.984 818.807C104.448 818.817 104.082 819.392 103.351 820.54Z" fill="url(#paint6_linear)"/>
<circle cx="794.991" cy="749.205" r="3.62757" fill="white" fill-opacity="0.25"/>
<circle cx="662.5" cy="483.5" r="3.5" fill="white" fill-opacity="0.25"/>
<circle cx="214.5" cy="657.5" r="2.5" fill="white" fill-opacity="0.25"/>
<circle cx="269.446" cy="255.402" r="2.26723" fill="white" fill-opacity="0.25"/>
<circle cx="1310.36" cy="347.36" r="1.36034" fill="white" fill-opacity="0.25"/>
<circle cx="101.36" cy="308.36" r="1.36034" fill="white" fill-opacity="0.25"/>
<circle cx="84.3603" cy="677.36" r="1.36034" fill="white" fill-opacity="0.25"/>
<circle cx="878.814" cy="578.814" r="1.81379" fill="white" fill-opacity="0.25"/>
<circle cx="306.814" cy="311.814" r="1.81379" fill="white" fill-opacity="0.25"/>
<circle cx="404.814" cy="845.814" r="1.81379" fill="white" fill-opacity="0.25"/>
<circle cx="438.814" cy="440.814" r="1.81379" fill="white" fill-opacity="0.25"/>
<circle cx="1268.81" cy="240.814" r="1.81379" fill="white" fill-opacity="0.25"/>
<circle cx="788.814" cy="457.814" r="1.81379" fill="white" fill-opacity="0.25"/>
<circle cx="449.814" cy="870.814" r="1.81379" fill="white" fill-opacity="0.25"/>
<circle cx="657" cy="670" r="2" fill="white" fill-opacity="0.25"/>
<circle cx="719.628" cy="865.628" r="3.62757" fill="white" fill-opacity="0.25"/>
<circle cx="61.6276" cy="834.628" r="3.62757" fill="white" fill-opacity="0.25"/>
<circle cx="371.018" cy="199.174" r="3.17413" fill="white" fill-opacity="0.25"/>
<circle cx="105.267" cy="548.267" r="2.26723" fill="white" fill-opacity="0.25"/>
<circle cx="451.732" cy="608.183" r="3.17413" fill="white" fill-opacity="0.25"/>
<circle cx="1073.17" cy="353.174" r="3.17413" fill="white" fill-opacity="0.25"/>
<circle cx="802.174" cy="180.174" r="3.17413" fill="white" fill-opacity="0.25"/>
<circle cx="1305.5" cy="798.5" r="1.5" fill="white" fill-opacity="0.25"/>
<circle cx="1412.72" cy="543.721" r="2.72068" fill="white" fill-opacity="0.25"/>
<circle cx="1407.72" cy="182.721" r="2.72068" fill="white" fill-opacity="0.25"/>
<circle cx="617.721" cy="273.721" r="2.72068" fill="white" fill-opacity="0.25"/>
<circle cx="336.267" cy="780.267" r="2.26723" fill="white" fill-opacity="0.25"/>
<circle cx="192.814" cy="444.489" r="1.81379" fill="white" fill-opacity="0.25"/>
<circle cx="1299.5" cy="613.5" r="2.5" fill="white" fill-opacity="0.25"/>
<circle cx="1105" cy="301" r="3" fill="white" fill-opacity="0.25"/>
<circle cx="1141" cy="830" r="2" fill="white" fill-opacity="0.25"/>
<circle cx="1080.08" cy="579.081" r="4.08102" fill="white" fill-opacity="0.25"/>
<circle cx="1009" cy="861" r="3" fill="white" fill-opacity="0.25"/>
<path d="M336.556 1123.84L2.31062 833.872C0.883344 832.634 0.169708 832.015 -0.415146 832.282C-1 832.549 -1 833.493 -1 835.383V1530C-1 1530.94 -1 1531.41 -0.707107 1531.71C-0.414214 1532 0.0571839 1532 0.999979 1532H830C830.943 1532 831.414 1532 831.707 1531.71C832 1531.41 832 1530.94 832 1530V1244.17C832 1243.57 832 1243.27 831.851 1243.03C831.701 1242.79 831.433 1242.65 830.895 1242.38L523.417 1088.54C523.115 1088.39 522.964 1088.32 522.8 1088.3C522.636 1088.27 522.47 1088.31 522.139 1088.37L338.25 1124.3C337.78 1124.39 337.545 1124.43 337.322 1124.37C337.099 1124.31 336.918 1124.16 336.556 1123.84Z" fill="url(#paint7_linear)"/>
<path d="M800.684 1126.67L595.485 1529.09C594.82 1530.39 594.488 1531.04 594.781 1531.52C595.074 1532 595.806 1532 597.269 1532H597.269L1444 1530.97C1444.94 1530.97 1445.42 1530.97 1445.71 1530.68C1446 1530.39 1446 1529.92 1446 1528.97V904.879C1446 902.805 1446 901.768 1445.38 901.514C1444.76 901.26 1444.03 901.998 1442.58 903.475L1211.9 1137.53C1211.48 1137.96 1211.27 1138.17 1210.99 1138.24C1210.71 1138.31 1210.43 1138.21 1209.85 1138.03L1098.99 1101.59C1098.72 1101.51 1098.59 1101.46 1098.45 1101.46C1098.31 1101.45 1098.18 1101.48 1097.91 1101.55L875.469 1153.69C875.168 1153.76 875.017 1153.79 874.865 1153.78C874.714 1153.77 874.57 1153.71 874.282 1153.6L803.197 1125.72C802.394 1125.4 801.993 1125.24 801.632 1125.38C801.272 1125.52 801.076 1125.9 800.684 1126.67Z" fill="url(#paint8_linear)"/>
<path d="M618.5 1401.63L442.056 1528.37C439.976 1529.86 438.936 1530.61 439.16 1531.3C439.384 1532 440.664 1532 443.225 1531.99H443.225L1438 1530.83C1438.94 1530.83 1439.42 1530.83 1439.71 1530.53C1440 1530.24 1440 1529.77 1440 1528.83V983.8C1440 982.131 1440 981.296 1439.47 981.015C1438.93 980.734 1438.24 981.207 1436.87 982.152L1208.33 1139.16C1207.92 1139.44 1207.72 1139.58 1207.48 1139.61C1207.25 1139.64 1207.02 1139.56 1206.55 1139.4L1002.09 1069.63C1001.56 1069.45 1001.29 1069.36 1001.03 1069.41C1000.77 1069.46 1000.56 1069.65 1000.13 1070.01L618.5 1401.63Z" fill="url(#paint9_linear)"/>
</g>
<defs>
<linearGradient id="paint0_linear" x1="720" y1="320.5" x2="719.5" y2="1532" gradientUnits="userSpaceOnUse">
<stop stop-color="#C4C4C4" stop-opacity="0"/>
<stop offset="0.765625" stop-color="#C4C4C4"/>
</linearGradient>
<linearGradient id="paint1_linear" x1="203.5" y1="154" x2="203.5" y2="1093.36" gradientUnits="userSpaceOnUse">
<stop offset="0.395833" stop-color="#1F2041"/>
<stop offset="0.880208" stop-color="#FAAF57"/>
<stop offset="1" stop-color="#F5F95A"/>
</linearGradient>
<linearGradient id="paint2_linear" x1="137.5" y1="0" x2="137.5" y2="939.356" gradientUnits="userSpaceOnUse">
<stop offset="0.395833" stop-color="#1F2041"/>
<stop offset="0.880208" stop-color="#FAAF57"/>
<stop offset="1" stop-color="#F5F95A"/>
</linearGradient>
<linearGradient id="paint3_linear" x1="864" y1="154" x2="864" y2="1093.36" gradientUnits="userSpaceOnUse">
<stop offset="0.395833" stop-color="#1F2041"/>
<stop offset="0.880208" stop-color="#FAAF57"/>
<stop offset="1" stop-color="#F5F95A"/>
</linearGradient>
<linearGradient id="paint4_linear" x1="197" y1="0" x2="197" y2="939.356" gradientUnits="userSpaceOnUse">
<stop offset="0.395833" stop-color="#1F2041"/>
<stop offset="0.880208" stop-color="#FAAF57"/>
<stop offset="1" stop-color="#F5F95A"/>
</linearGradient>
<linearGradient id="paint5_linear" x1="1401.45" y1="674.589" x2="494.408" y2="904.759" gradientUnits="userSpaceOnUse">
<stop stop-color="#C97FE2"/>
<stop offset="0.491021" stop-color="#FF594F"/>
<stop offset="0.732053" stop-color="#38368F"/>
<stop offset="1" stop-color="#E2857F"/>
</linearGradient>
<linearGradient id="paint6_linear" x1="862.178" y1="360.168" x2="419.441" y2="1108" gradientUnits="userSpaceOnUse">
<stop stop-color="#CA7E5D"/>
<stop offset="1" stop-color="#553072"/>
</linearGradient>
<linearGradient id="paint7_linear" x1="632.662" y1="802.712" x2="-85.0363" y2="1487.41" gradientUnits="userSpaceOnUse">
<stop stop-color="#3E2361"/>
<stop offset="1" stop-color="#040615"/>
</linearGradient>
<linearGradient id="paint8_linear" x1="1098.85" y1="1119.92" x2="473.813" y2="1203.68" gradientUnits="userSpaceOnUse">
<stop stop-color="#341B55"/>
<stop offset="1" stop-color="#4E2B7B"/>
</linearGradient>
<linearGradient id="paint9_linear" x1="1006.5" y1="1061.04" x2="1577.73" y2="1461.58" gradientUnits="userSpaceOnUse">
<stop stop-color="#220F40"/>
<stop offset="1" stop-color="#34244F"/>
</linearGradient>
</defs>
</svg>
