<svg width="1440" height="1378" viewBox="0 0 1440 1378" fill="none" xmlns="http://www.w3.org/2000/svg">
<rect width="407" height="870" fill="url(#paint0_linear)" fill-opacity="0.4"/>
<rect width="275" height="870" transform="matrix(-1 0 0 1 682 0)" fill="url(#paint1_linear)" fill-opacity="0.4"/>
<rect x="682" width="364" height="870" fill="url(#paint2_linear)" fill-opacity="0.4"/>
<rect width="394" height="870" transform="matrix(-1 0 0 1 1440 0)" fill="url(#paint3_linear)" fill-opacity="0.4"/>
<path d="M248.969 693.879L171.61 759.805C171.254 760.109 171.156 760.62 171.375 761.034L228.615 869.271C228.838 869.695 229.331 869.9 229.789 869.761L313.929 844.263C314.5 844.09 314.793 843.459 314.557 842.911L250.536 694.244C250.27 693.626 249.481 693.442 248.969 693.879Z" fill="#D897A9"/>
<path d="M525.419 757.941L422.678 848.468C422.344 848.762 422.177 848.909 422.089 849.106C422 849.302 422 849.524 422 849.969V928.965C422 929.923 422 930.402 422.299 930.696C422.598 930.99 423.077 930.981 424.034 930.965H424.034L1362.92 914.769C1363.17 914.765 1363.29 914.763 1363.41 914.732C1363.53 914.7 1363.63 914.641 1363.85 914.522L1438.96 873.256C1439.47 872.978 1439.72 872.839 1439.86 872.604C1440 872.368 1440 872.08 1440 871.503V615.881C1440 611.357 1440 609.095 1439.17 608.955C1438.33 608.814 1437.59 610.952 1436.11 615.227L1398.6 723.501L1398.6 723.501C1398.23 724.563 1398.04 725.094 1397.6 725.258C1397.16 725.422 1396.67 725.14 1395.7 724.576L1367.67 708.302C1366.89 707.847 1366.5 707.62 1366.11 707.714C1365.72 707.808 1365.48 708.189 1364.99 708.951L1277.99 844.542C1277.73 844.951 1277.59 845.155 1277.39 845.276C1277.19 845.396 1276.95 845.416 1276.47 845.455L1034.27 865.253C1033.95 865.279 1033.8 865.291 1033.64 865.256C1033.49 865.221 1033.36 865.14 1033.09 864.979L889.309 779.553C888.807 779.255 888.557 779.106 888.28 779.107C888.003 779.108 887.754 779.259 887.254 779.56L773.317 848.331C772.729 848.686 772.435 848.863 772.117 848.839C771.799 848.816 771.535 848.597 771.007 848.158L708.575 796.379C708.3 796.151 708.163 796.037 707.998 795.978C707.834 795.919 707.655 795.919 707.298 795.919H679.714C679.286 795.919 679.071 795.919 678.88 795.836C678.69 795.753 678.544 795.596 678.251 795.283L605.397 717.149C604.665 716.363 604.299 715.971 603.842 715.987C603.386 716.004 603.049 716.423 602.376 717.259L554.055 777.34L554.055 777.34C553.449 778.093 553.146 778.47 552.726 778.509C552.305 778.549 551.937 778.236 551.201 777.61L528.036 757.918C527.407 757.383 527.093 757.116 526.72 757.119C526.348 757.123 526.038 757.396 525.419 757.941Z" fill="url(#paint4_linear)"/>
<path d="M103.351 666.54L24.7853 789.85C24.4066 790.444 24.2172 790.741 24.238 791.067C24.2588 791.393 24.4844 791.663 24.9356 792.205H24.9356L190.115 990.398L190.115 990.399C190.514 990.877 190.713 991.116 190.992 991.204C191.272 991.293 191.573 991.211 192.174 991.048L317.486 957.122C317.929 957.002 318.151 956.942 318.369 956.98C318.588 957.018 318.776 957.149 319.152 957.412L529.259 1103.92C529.991 1104.43 530.358 1104.69 530.75 1104.63C531.143 1104.57 531.42 1104.22 531.973 1103.52L576.485 1047.11L576.485 1047.1C576.875 1046.61 577.069 1046.36 577.349 1046.27C577.629 1046.17 577.934 1046.25 578.544 1046.4L670.362 1069.55C670.556 1069.6 670.653 1069.63 670.752 1069.63C670.852 1069.64 670.951 1069.62 671.149 1069.59L955.284 1026.78C955.463 1026.76 955.552 1026.74 955.641 1026.75C955.731 1026.75 955.819 1026.77 955.996 1026.81L1098.28 1056.86C1098.68 1056.94 1098.88 1056.98 1099.07 1056.95C1099.27 1056.91 1099.44 1056.8 1099.78 1056.58L1323.52 910.715C1324.22 910.255 1324.58 910.024 1324.68 909.659C1324.78 909.294 1324.59 908.915 1324.22 908.159L1234.23 724.684C1233.49 723.169 1233.12 722.411 1232.51 722.397C1231.9 722.383 1231.49 723.123 1230.68 724.602L1171.06 833.097C1170.81 833.542 1170.69 833.764 1170.49 833.899C1170.29 834.035 1170.04 834.064 1169.53 834.121L883.789 866.699C883.242 866.761 882.969 866.792 882.727 866.69C882.486 866.588 882.318 866.371 881.981 865.936L841.633 813.796C840.759 812.666 840.322 812.101 839.772 812.155C839.222 812.209 838.902 812.848 838.263 814.125L795.004 900.576C794.623 901.336 794.433 901.716 794.078 901.857C793.724 901.997 793.325 901.851 792.526 901.558L632.263 842.785C631.775 842.606 631.531 842.517 631.285 842.551C631.038 842.584 630.827 842.736 630.406 843.04L549.295 901.456L549.294 901.456C548.81 901.805 548.567 901.98 548.286 902.001C548.004 902.022 547.739 901.884 547.208 901.61L373.005 811.61C372.689 811.447 372.531 811.365 372.358 811.343C372.185 811.32 372.011 811.357 371.664 811.432L229.728 842.137C229.095 842.274 228.778 842.343 228.496 842.231C228.214 842.12 228.029 841.853 227.661 841.32L106.682 666.476C105.908 665.357 105.52 664.797 104.984 664.807C104.448 664.817 104.082 665.392 103.351 666.54Z" fill="url(#paint5_linear)"/>
<circle cx="794.991" cy="595.205" r="3.62757" fill="white" fill-opacity="0.25"/>
<circle cx="662.5" cy="329.5" r="3.5" fill="white" fill-opacity="0.25"/>
<circle cx="214.5" cy="503.5" r="2.5" fill="white" fill-opacity="0.25"/>
<circle cx="269.446" cy="101.402" r="2.26723" fill="white" fill-opacity="0.25"/>
<circle cx="1310.36" cy="193.36" r="1.36034" fill="white" fill-opacity="0.25"/>
<circle cx="101.36" cy="154.36" r="1.36034" fill="white" fill-opacity="0.25"/>
<circle cx="84.3603" cy="523.36" r="1.36034" fill="white" fill-opacity="0.25"/>
<circle cx="878.814" cy="424.814" r="1.81379" fill="white" fill-opacity="0.25"/>
<circle cx="306.814" cy="157.814" r="1.81379" fill="white" fill-opacity="0.25"/>
<circle cx="404.814" cy="691.814" r="1.81379" fill="white" fill-opacity="0.25"/>
<circle cx="438.814" cy="286.814" r="1.81379" fill="white" fill-opacity="0.25"/>
<circle cx="1268.81" cy="86.8138" r="1.81379" fill="white" fill-opacity="0.25"/>
<circle cx="788.814" cy="303.814" r="1.81379" fill="white" fill-opacity="0.25"/>
<circle cx="449.814" cy="716.814" r="1.81379" fill="white" fill-opacity="0.25"/>
<circle cx="657" cy="516" r="2" fill="white" fill-opacity="0.25"/>
<circle cx="719.628" cy="711.628" r="3.62757" fill="white" fill-opacity="0.25"/>
<circle cx="61.6276" cy="680.628" r="3.62757" fill="white" fill-opacity="0.25"/>
<circle cx="371.018" cy="45.1741" r="3.17413" fill="white" fill-opacity="0.25"/>
<circle cx="105.267" cy="394.267" r="2.26723" fill="white" fill-opacity="0.25"/>
<circle cx="451.732" cy="454.183" r="3.17413" fill="white" fill-opacity="0.25"/>
<circle cx="1073.17" cy="199.174" r="3.17413" fill="white" fill-opacity="0.25"/>
<circle cx="802.174" cy="26.1741" r="3.17413" fill="white" fill-opacity="0.25"/>
<circle cx="1305.5" cy="644.5" r="1.5" fill="white" fill-opacity="0.25"/>
<circle cx="1412.72" cy="389.721" r="2.72068" fill="white" fill-opacity="0.25"/>
<circle cx="1407.72" cy="28.7207" r="2.72068" fill="white" fill-opacity="0.25"/>
<circle cx="617.721" cy="119.721" r="2.72068" fill="white" fill-opacity="0.25"/>
<circle cx="336.267" cy="626.267" r="2.26723" fill="white" fill-opacity="0.25"/>
<circle cx="192.814" cy="290.489" r="1.81379" fill="white" fill-opacity="0.25"/>
<circle cx="1299.5" cy="459.5" r="2.5" fill="white" fill-opacity="0.25"/>
<circle cx="1105" cy="147" r="3" fill="white" fill-opacity="0.25"/>
<circle cx="1141" cy="676" r="2" fill="white" fill-opacity="0.25"/>
<circle cx="1080.08" cy="425.081" r="4.08102" fill="white" fill-opacity="0.25"/>
<circle cx="1009" cy="707" r="3" fill="white" fill-opacity="0.25"/>
<path d="M336.556 969.844L2.31062 679.872C0.883344 678.634 0.169708 678.015 -0.415146 678.282C-1 678.549 -1 679.493 -1 681.383V1376C-1 1376.94 -1 1377.41 -0.707107 1377.71C-0.414214 1378 0.0571839 1378 0.999979 1378H830C830.943 1378 831.414 1378 831.707 1377.71C832 1377.41 832 1376.94 832 1376V1090.17C832 1089.57 832 1089.27 831.851 1089.03C831.701 1088.79 831.433 1088.65 830.895 1088.38L523.417 934.545C523.115 934.393 522.964 934.318 522.8 934.296C522.636 934.273 522.47 934.306 522.139 934.37L338.25 970.296C337.78 970.388 337.545 970.434 337.322 970.374C337.099 970.315 336.918 970.158 336.556 969.844Z" fill="url(#paint6_linear)"/>
<path d="M800.684 972.669L595.485 1375.09C594.82 1376.39 594.488 1377.04 594.781 1377.52C595.074 1378 595.806 1378 597.269 1378H597.269L1444 1376.97C1444.94 1376.97 1445.42 1376.97 1445.71 1376.68C1446 1376.39 1446 1375.92 1446 1374.97V750.879C1446 748.805 1446 747.768 1445.38 747.514C1444.76 747.26 1444.03 747.998 1442.58 749.475L1211.9 983.53C1211.48 983.959 1211.27 984.174 1210.99 984.241C1210.71 984.308 1210.43 984.214 1209.85 984.026L1098.99 947.593C1098.72 947.506 1098.59 947.463 1098.45 947.457C1098.31 947.451 1098.18 947.482 1097.91 947.546L875.469 999.685C875.168 999.756 875.017 999.791 874.865 999.78C874.714 999.769 874.57 999.713 874.282 999.6L803.197 971.716C802.394 971.401 801.993 971.244 801.632 971.381C801.272 971.518 801.076 971.902 800.684 972.669Z" fill="url(#paint7_linear)"/>
<path d="M618.5 1247.63L442.056 1374.37C439.976 1375.86 438.936 1376.61 439.16 1377.3C439.384 1378 440.664 1378 443.225 1377.99H443.225L1438 1376.83C1438.94 1376.83 1439.42 1376.83 1439.71 1376.53C1440 1376.24 1440 1375.77 1440 1374.83V829.8C1440 828.131 1440 827.296 1439.47 827.015C1438.93 826.734 1438.24 827.207 1436.87 828.152L1208.33 985.159C1207.92 985.438 1207.72 985.577 1207.48 985.61C1207.25 985.642 1207.02 985.562 1206.55 985.403L1002.09 915.631C1001.56 915.45 1001.29 915.359 1001.03 915.41C1000.77 915.462 1000.56 915.646 1000.13 916.014L618.5 1247.63Z" fill="url(#paint8_linear)"/>
<defs>
<linearGradient id="paint0_linear" x1="203.5" y1="0" x2="203.5" y2="939.356" gradientUnits="userSpaceOnUse">
<stop offset="0.395833" stop-color="#1F2041"/>
<stop offset="0.880208" stop-color="#FAAF57"/>
<stop offset="1" stop-color="#F5F95A"/>
</linearGradient>
<linearGradient id="paint1_linear" x1="137.5" y1="0" x2="137.5" y2="939.356" gradientUnits="userSpaceOnUse">
<stop offset="0.395833" stop-color="#1F2041"/>
<stop offset="0.880208" stop-color="#FAAF57"/>
<stop offset="1" stop-color="#F5F95A"/>
</linearGradient>
<linearGradient id="paint2_linear" x1="864" y1="0" x2="864" y2="939.356" gradientUnits="userSpaceOnUse">
<stop offset="0.395833" stop-color="#1F2041"/>
<stop offset="0.880208" stop-color="#FAAF57"/>
<stop offset="1" stop-color="#F5F95A"/>
</linearGradient>
<linearGradient id="paint3_linear" x1="197" y1="0" x2="197" y2="939.356" gradientUnits="userSpaceOnUse">
<stop offset="0.395833" stop-color="#1F2041"/>
<stop offset="0.880208" stop-color="#FAAF57"/>
<stop offset="1" stop-color="#F5F95A"/>
</linearGradient>
<linearGradient id="paint4_linear" x1="1401.45" y1="520.589" x2="494.408" y2="750.759" gradientUnits="userSpaceOnUse">
<stop stop-color="#C97FE2"/>
<stop offset="0.491021" stop-color="#FF594F"/>
<stop offset="0.732053" stop-color="#38368F"/>
<stop offset="1" stop-color="#E2857F"/>
</linearGradient>
<linearGradient id="paint5_linear" x1="862.178" y1="206.168" x2="419.441" y2="953.998" gradientUnits="userSpaceOnUse">
<stop stop-color="#CA7E5D"/>
<stop offset="1" stop-color="#553072"/>
</linearGradient>
<linearGradient id="paint6_linear" x1="632.662" y1="648.712" x2="-85.0363" y2="1333.41" gradientUnits="userSpaceOnUse">
<stop stop-color="#3E2361"/>
<stop offset="1" stop-color="#040615"/>
</linearGradient>
<linearGradient id="paint7_linear" x1="1098.85" y1="965.915" x2="473.813" y2="1049.68" gradientUnits="userSpaceOnUse">
<stop stop-color="#341B55"/>
<stop offset="1" stop-color="#4E2B7B"/>
</linearGradient>
<linearGradient id="paint8_linear" x1="1006.5" y1="907.038" x2="1577.73" y2="1307.58" gradientUnits="userSpaceOnUse">
<stop stop-color="#220F40"/>
<stop offset="1" stop-color="#34244F"/>
</linearGradient>
</defs>
</svg>
