
<svg width="1440" height="1378" viewBox="0 0 1440 1378" fill="none" xmlns="http://www.w3.org/2000/svg">
<circle cx="1239.5" cy="162.231" r="162.231" fill="#2FA0B0"/>
<path fill-rule="evenodd" clip-rule="evenodd" d="M1401.6 168.808C1401.69 166.626 1401.73 164.434 1401.73 162.231C1401.73 155.803 1401.36 149.463 1400.63 143.231H1183.6C1176.53 143.231 1170.81 148.956 1170.81 156.019C1170.81 163.082 1176.53 168.808 1183.6 168.808H1401.6ZM1385.47 233.115H1325.09H1264.71C1257.65 233.115 1251.92 238.841 1251.92 245.904C1251.92 252.967 1257.65 258.692 1264.71 258.692H1369.95C1375.87 250.698 1381.08 242.141 1385.47 233.115ZM1141.56 291.577H1252.29C1259.35 291.577 1265.08 285.851 1265.08 278.788C1265.08 271.726 1259.35 266 1252.29 266H1183.54H1114.79C1122.71 275.507 1131.7 284.093 1141.56 291.577ZM1088.99 222.885H1219.4C1226.47 222.885 1232.19 217.159 1232.19 210.096C1232.19 203.033 1226.47 197.308 1219.4 197.308H1081.07C1083.01 206.124 1085.67 214.671 1088.99 222.885ZM1090.51 97.9231C1086.97 106.121 1084.08 114.668 1081.92 123.5H1271.29C1278.35 123.5 1284.08 117.774 1284.08 110.712C1284.08 103.649 1278.35 97.9231 1271.29 97.9231H1090.51Z" fill="#9FB5C1"/>
<path fill-rule="evenodd" clip-rule="evenodd" d="M1081.92 123.5H1271.29C1278.35 123.5 1284.08 117.774 1284.08 110.712C1284.08 103.649 1278.35 97.9231 1271.29 97.9231H1090.51C1086.97 106.121 1084.08 114.668 1081.92 123.5Z" fill="#9FB5C1"/>
<path fill-rule="evenodd" clip-rule="evenodd" d="M1088.99 222.885H1219.4C1226.47 222.885 1232.19 217.159 1232.19 210.096C1232.19 203.033 1226.47 197.308 1219.4 197.308H1081.07C1083.01 206.124 1085.67 214.671 1088.99 222.885Z" fill="#9FB5C1"/>
<path fill-rule="evenodd" clip-rule="evenodd" d="M1141.56 291.577H1252.29C1259.35 291.577 1265.08 285.851 1265.08 278.788C1265.08 271.726 1259.35 266 1252.29 266H1183.54H1114.79C1122.71 275.507 1131.7 284.093 1141.56 291.577Z" fill="#9FB5C1"/>
<path fill-rule="evenodd" clip-rule="evenodd" d="M1183.6 143.231C1176.53 143.231 1170.81 148.956 1170.81 156.019C1170.81 163.082 1176.53 168.808 1183.6 168.808H1401.6C1401.69 166.626 1401.73 164.434 1401.73 162.231C1401.73 155.803 1401.36 149.463 1400.63 143.231H1183.6Z" fill="#9FB5C1"/>
<path fill-rule="evenodd" clip-rule="evenodd" d="M1264.71 233.115C1257.65 233.115 1251.92 238.841 1251.92 245.904C1251.92 252.967 1257.65 258.692 1264.71 258.692H1369.95C1375.87 250.698 1381.08 242.141 1385.47 233.115H1325.09H1264.71Z" fill="#9FB5C1"/>
<mask id="mask0" mask-type="alpha" maskUnits="userSpaceOnUse" x="0" y="4" width="1439" height="1532">
<rect y="4" width="1439" height="1532" fill="url(#paint0_linear)"/>
</mask>
<g mask="url(#mask0)">
<rect y="158" width="407" height="870" fill="url(#paint1_linear)" fill-opacity="0.4"/>
<rect width="275" height="870" transform="matrix(-1 0 0 1 682 158)" fill="url(#paint2_linear)" fill-opacity="0.4"/>
<rect x="682" y="158" width="364" height="870" fill="url(#paint3_linear)" fill-opacity="0.4"/>
<rect width="394" height="870" transform="matrix(-1 0 0 1 1440 158)" fill="url(#paint4_linear)" fill-opacity="0.4"/>
<path d="M248.969 851.879L171.61 917.805C171.254 918.109 171.156 918.62 171.375 919.034L228.615 1027.27C228.838 1027.69 229.331 1027.9 229.789 1027.76L313.929 1002.26C314.5 1002.09 314.793 1001.46 314.557 1000.91L250.536 852.244C250.27 851.626 249.481 851.442 248.969 851.879Z" fill="#D897A9"/>
<path d="M525.419 915.941L422.678 1006.47C422.344 1006.76 422.177 1006.91 422.089 1007.11C422 1007.3 422 1007.52 422 1007.97V1086.97C422 1087.92 422 1088.4 422.299 1088.7C422.598 1088.99 423.077 1088.98 424.034 1088.96H424.034L1362.92 1072.77C1363.17 1072.77 1363.29 1072.76 1363.41 1072.73C1363.53 1072.7 1363.63 1072.64 1363.85 1072.52L1438.96 1031.26C1439.47 1030.98 1439.72 1030.84 1439.86 1030.6C1440 1030.37 1440 1030.08 1440 1029.5V773.881C1440 769.357 1440 767.095 1439.17 766.955C1438.33 766.814 1437.59 768.952 1436.11 773.227L1398.6 881.501L1398.6 881.501C1398.23 882.563 1398.04 883.094 1397.6 883.258C1397.16 883.422 1396.67 883.14 1395.7 882.576L1367.67 866.302C1366.89 865.847 1366.5 865.62 1366.11 865.714C1365.72 865.808 1365.48 866.189 1364.99 866.951L1277.99 1002.54C1277.73 1002.95 1277.59 1003.16 1277.39 1003.28C1277.19 1003.4 1276.95 1003.42 1276.47 1003.46L1034.27 1023.25C1033.95 1023.28 1033.8 1023.29 1033.64 1023.26C1033.49 1023.22 1033.36 1023.14 1033.09 1022.98L889.309 937.553C888.807 937.255 888.557 937.106 888.28 937.107C888.003 937.108 887.754 937.259 887.254 937.56L773.317 1006.33C772.729 1006.69 772.435 1006.86 772.117 1006.84C771.799 1006.82 771.535 1006.6 771.007 1006.16L708.575 954.379C708.3 954.151 708.163 954.037 707.998 953.978C707.834 953.919 707.655 953.919 707.298 953.919H679.714C679.286 953.919 679.071 953.919 678.88 953.836C678.69 953.753 678.544 953.596 678.251 953.283L605.397 875.149C604.665 874.363 604.299 873.971 603.842 873.987C603.386 874.004 603.049 874.423 602.376 875.259L554.055 935.34L554.055 935.34C553.449 936.093 553.146 936.47 552.726 936.509C552.305 936.549 551.937 936.236 551.201 935.61L528.036 915.918C527.407 915.383 527.093 915.116 526.72 915.119C526.348 915.123 526.038 915.396 525.419 915.941Z" fill="url(#paint5_linear)"/>
<path d="M103.351 824.54L24.7853 947.85C24.4066 948.444 24.2172 948.741 24.238 949.067C24.2588 949.393 24.4844 949.663 24.9356 950.205H24.9356L190.115 1148.4L190.115 1148.4C190.514 1148.88 190.713 1149.12 190.992 1149.2C191.272 1149.29 191.573 1149.21 192.174 1149.05L317.486 1115.12C317.929 1115 318.151 1114.94 318.369 1114.98C318.588 1115.02 318.776 1115.15 319.152 1115.41L529.259 1261.92C529.991 1262.43 530.358 1262.69 530.75 1262.63C531.143 1262.57 531.42 1262.22 531.973 1261.52L576.485 1205.11L576.485 1205.1C576.875 1204.61 577.069 1204.36 577.349 1204.27C577.629 1204.17 577.934 1204.25 578.544 1204.4L670.362 1227.55C670.556 1227.6 670.653 1227.63 670.752 1227.63C670.852 1227.64 670.951 1227.62 671.149 1227.59L955.284 1184.78C955.463 1184.76 955.552 1184.74 955.641 1184.75C955.731 1184.75 955.819 1184.77 955.996 1184.81L1098.28 1214.86C1098.68 1214.94 1098.88 1214.98 1099.07 1214.95C1099.27 1214.91 1099.44 1214.8 1099.78 1214.58L1323.52 1068.71C1324.22 1068.25 1324.58 1068.02 1324.68 1067.66C1324.78 1067.29 1324.59 1066.92 1324.22 1066.16L1234.23 882.684C1233.49 881.169 1233.12 880.411 1232.51 880.397C1231.9 880.383 1231.49 881.123 1230.68 882.602L1171.06 991.097C1170.81 991.542 1170.69 991.764 1170.49 991.899C1170.29 992.035 1170.04 992.064 1169.53 992.121L883.789 1024.7C883.242 1024.76 882.969 1024.79 882.727 1024.69C882.486 1024.59 882.318 1024.37 881.981 1023.94L841.633 971.796C840.759 970.666 840.322 970.101 839.772 970.155C839.222 970.209 838.902 970.848 838.263 972.125L795.004 1058.58C794.623 1059.34 794.433 1059.72 794.078 1059.86C793.724 1060 793.325 1059.85 792.526 1059.56L632.263 1000.79C631.775 1000.61 631.531 1000.52 631.285 1000.55C631.038 1000.58 630.827 1000.74 630.406 1001.04L549.295 1059.46L549.294 1059.46C548.81 1059.81 548.567 1059.98 548.286 1060C548.004 1060.02 547.739 1059.88 547.208 1059.61L373.005 969.61C372.689 969.447 372.531 969.365 372.358 969.343C372.185 969.32 372.011 969.357 371.664 969.432L229.728 1000.14C229.095 1000.27 228.778 1000.34 228.496 1000.23C228.214 1000.12 228.029 999.853 227.661 999.32L106.682 824.476C105.908 823.357 105.52 822.797 104.984 822.807C104.448 822.817 104.082 823.392 103.351 824.54Z" fill="url(#paint6_linear)"/>
<circle cx="794.991" cy="753.205" r="3.62757" fill="white" fill-opacity="0.25"/>
<circle cx="662.5" cy="487.5" r="3.5" fill="white" fill-opacity="0.25"/>
<circle cx="214.5" cy="661.5" r="2.5" fill="white" fill-opacity="0.25"/>
<circle cx="269.446" cy="259.402" r="2.26723" fill="white" fill-opacity="0.25"/>
<circle cx="1310.36" cy="351.36" r="1.36034" fill="white" fill-opacity="0.25"/>
<circle cx="101.36" cy="312.36" r="1.36034" fill="white" fill-opacity="0.25"/>
<circle cx="84.3603" cy="681.36" r="1.36034" fill="white" fill-opacity="0.25"/>
<circle cx="878.814" cy="582.814" r="1.81379" fill="white" fill-opacity="0.25"/>
<circle cx="306.814" cy="315.814" r="1.81379" fill="white" fill-opacity="0.25"/>
<circle cx="404.814" cy="849.814" r="1.81379" fill="white" fill-opacity="0.25"/>
<circle cx="438.814" cy="444.814" r="1.81379" fill="white" fill-opacity="0.25"/>
<circle cx="1268.81" cy="244.814" r="1.81379" fill="white" fill-opacity="0.25"/>
<circle cx="788.814" cy="461.814" r="1.81379" fill="white" fill-opacity="0.25"/>
<circle cx="449.814" cy="874.814" r="1.81379" fill="white" fill-opacity="0.25"/>
<circle cx="657" cy="674" r="2" fill="white" fill-opacity="0.25"/>
<circle cx="719.628" cy="869.628" r="3.62757" fill="white" fill-opacity="0.25"/>
<circle cx="61.6276" cy="838.628" r="3.62757" fill="white" fill-opacity="0.25"/>
<circle cx="371.018" cy="203.174" r="3.17413" fill="white" fill-opacity="0.25"/>
<circle cx="105.267" cy="552.267" r="2.26723" fill="white" fill-opacity="0.25"/>
<circle cx="451.732" cy="612.183" r="3.17413" fill="white" fill-opacity="0.25"/>
<circle cx="1073.17" cy="357.174" r="3.17413" fill="white" fill-opacity="0.25"/>
<circle cx="802.174" cy="184.174" r="3.17413" fill="white" fill-opacity="0.25"/>
<circle cx="1305.5" cy="802.5" r="1.5" fill="white" fill-opacity="0.25"/>
<circle cx="1412.72" cy="547.721" r="2.72068" fill="white" fill-opacity="0.25"/>
<circle cx="1407.72" cy="186.721" r="2.72068" fill="white" fill-opacity="0.25"/>
<circle cx="617.721" cy="277.721" r="2.72068" fill="white" fill-opacity="0.25"/>
<circle cx="336.267" cy="784.267" r="2.26723" fill="white" fill-opacity="0.25"/>
<circle cx="192.814" cy="448.489" r="1.81379" fill="white" fill-opacity="0.25"/>
<circle cx="1299.5" cy="617.5" r="2.5" fill="white" fill-opacity="0.25"/>
<circle cx="1105" cy="305" r="3" fill="white" fill-opacity="0.25"/>
<circle cx="1141" cy="834" r="2" fill="white" fill-opacity="0.25"/>
<circle cx="1080.08" cy="583.081" r="4.08102" fill="white" fill-opacity="0.25"/>
<circle cx="1009" cy="865" r="3" fill="white" fill-opacity="0.25"/>
<path d="M336.556 1127.84L2.31062 837.872C0.883344 836.634 0.169708 836.015 -0.415146 836.282C-1 836.549 -1 837.493 -1 839.383V1534C-1 1534.94 -1 1535.41 -0.707107 1535.71C-0.414214 1536 0.0571839 1536 0.999979 1536H830C830.943 1536 831.414 1536 831.707 1535.71C832 1535.41 832 1534.94 832 1534V1248.17C832 1247.57 832 1247.27 831.851 1247.03C831.701 1246.79 831.433 1246.65 830.895 1246.38L523.417 1092.54C523.115 1092.39 522.964 1092.32 522.8 1092.3C522.636 1092.27 522.47 1092.31 522.139 1092.37L338.25 1128.3C337.78 1128.39 337.545 1128.43 337.322 1128.37C337.099 1128.31 336.918 1128.16 336.556 1127.84Z" fill="url(#paint7_linear)"/>
<path d="M800.684 1130.67L595.485 1533.09C594.82 1534.39 594.488 1535.04 594.781 1535.52C595.074 1536 595.806 1536 597.269 1536H597.269L1444 1534.97C1444.94 1534.97 1445.42 1534.97 1445.71 1534.68C1446 1534.39 1446 1533.92 1446 1532.97V908.879C1446 906.805 1446 905.768 1445.38 905.514C1444.76 905.26 1444.03 905.998 1442.58 907.475L1211.9 1141.53C1211.48 1141.96 1211.27 1142.17 1210.99 1142.24C1210.71 1142.31 1210.43 1142.21 1209.85 1142.03L1098.99 1105.59C1098.72 1105.51 1098.59 1105.46 1098.45 1105.46C1098.31 1105.45 1098.18 1105.48 1097.91 1105.55L875.469 1157.69C875.168 1157.76 875.017 1157.79 874.865 1157.78C874.714 1157.77 874.57 1157.71 874.282 1157.6L803.197 1129.72C802.394 1129.4 801.993 1129.24 801.632 1129.38C801.272 1129.52 801.076 1129.9 800.684 1130.67Z" fill="url(#paint8_linear)"/>
<path d="M618.5 1405.63L442.056 1532.37C439.976 1533.86 438.936 1534.61 439.16 1535.3C439.384 1536 440.664 1536 443.225 1535.99H443.225L1438 1534.83C1438.94 1534.83 1439.42 1534.83 1439.71 1534.53C1440 1534.24 1440 1533.77 1440 1532.83V987.8C1440 986.131 1440 985.296 1439.47 985.015C1438.93 984.734 1438.24 985.207 1436.87 986.152L1208.33 1143.16C1207.92 1143.44 1207.72 1143.58 1207.48 1143.61C1207.25 1143.64 1207.02 1143.56 1206.55 1143.4L1002.09 1073.63C1001.56 1073.45 1001.29 1073.36 1001.03 1073.41C1000.77 1073.46 1000.56 1073.65 1000.13 1074.01L618.5 1405.63Z" fill="url(#paint9_linear)"/>
</g>
<defs>
<linearGradient id="paint0_linear" x1="720" y1="324.5" x2="719.5" y2="1536" gradientUnits="userSpaceOnUse">
<stop stop-color="#C4C4C4" stop-opacity="0"/>
<stop offset="0.765625" stop-color="#C4C4C4"/>
</linearGradient>
<linearGradient id="paint1_linear" x1="203.5" y1="158" x2="203.5" y2="1097.36" gradientUnits="userSpaceOnUse">
<stop offset="0.395833" stop-color="#1F2041"/>
<stop offset="0.880208" stop-color="#FAAF57"/>
<stop offset="1" stop-color="#F5F95A"/>
</linearGradient>
<linearGradient id="paint2_linear" x1="137.5" y1="0" x2="137.5" y2="939.356" gradientUnits="userSpaceOnUse">
<stop offset="0.395833" stop-color="#1F2041"/>
<stop offset="0.880208" stop-color="#FAAF57"/>
<stop offset="1" stop-color="#F5F95A"/>
</linearGradient>
<linearGradient id="paint3_linear" x1="864" y1="158" x2="864" y2="1097.36" gradientUnits="userSpaceOnUse">
<stop offset="0.395833" stop-color="#1F2041"/>
<stop offset="0.880208" stop-color="#FAAF57"/>
<stop offset="1" stop-color="#F5F95A"/>
</linearGradient>
<linearGradient id="paint4_linear" x1="197" y1="0" x2="197" y2="939.356" gradientUnits="userSpaceOnUse">
<stop offset="0.395833" stop-color="#1F2041"/>
<stop offset="0.880208" stop-color="#FAAF57"/>
<stop offset="1" stop-color="#F5F95A"/>
</linearGradient>
<linearGradient id="paint5_linear" x1="1401.45" y1="678.589" x2="494.408" y2="908.759" gradientUnits="userSpaceOnUse">
<stop stop-color="#C97FE2"/>
<stop offset="0.491021" stop-color="#FF594F"/>
<stop offset="0.732053" stop-color="#38368F"/>
<stop offset="1" stop-color="#E2857F"/>
</linearGradient>
<linearGradient id="paint6_linear" x1="862.178" y1="364.168" x2="419.441" y2="1112" gradientUnits="userSpaceOnUse">
<stop stop-color="#CA7E5D"/>
<stop offset="1" stop-color="#553072"/>
</linearGradient>
<linearGradient id="paint7_linear" x1="632.662" y1="806.712" x2="-85.0363" y2="1491.41" gradientUnits="userSpaceOnUse">
<stop stop-color="#3E2361"/>
<stop offset="1" stop-color="#040615"/>
</linearGradient>
<linearGradient id="paint8_linear" x1="1098.85" y1="1123.92" x2="473.813" y2="1207.68" gradientUnits="userSpaceOnUse">
<stop stop-color="#341B55"/>
<stop offset="1" stop-color="#4E2B7B"/>
</linearGradient>
<linearGradient id="paint9_linear" x1="1006.5" y1="1065.04" x2="1577.73" y2="1465.58" gradientUnits="userSpaceOnUse">
<stop stop-color="#220F40"/>
<stop offset="1" stop-color="#34244F"/>
</linearGradient>
</defs>
</svg>
